<?xml version="1.0" encoding="UTF-8"?>
<svg width="400" height="400" viewBox="0 0 400 400" fill="none" xmlns="http://www.w3.org/2000/svg">
  <rect width="400" height="400" rx="200" fill="#EEF2FF"/>
  <path d="M200 100C144.772 100 100 144.772 100 200C100 255.228 144.772 300 200 300C255.228 300 300 255.228 300 200C300 144.772 255.228 100 200 100Z" fill="#818CF8"/>
  <path d="M170 180V220H230V180H170ZM220 210H180V190H220V210Z" fill="white"/>
  <path d="M210 150H190V170H210V150Z" fill="white"/>
  <path d="M210 230H190V250H210V230Z" fill="white"/>
  <path d="M150 190H170V210H150V190Z" fill="white"/>
  <path d="M230 190H250V210H230V190Z" fill="white"/>
</svg>
